<svg width="15" height="15" viewBox="0 0 15 15" fill="none" xmlns="http://www.w3.org/2000/svg">
<g clip-path="url(#clip0_59_2)">
<path opacity="0.993" fill-rule="evenodd" clip-rule="evenodd" d="M6.81938 0.0459002C9.97965 -0.0870584 12.3758 1.18573 14.0079 3.86426C15.0895 5.96751 15.2112 8.12571 14.3731 10.3389C13.1559 13.0209 11.0807 14.5427 8.14751 14.9043C4.98637 15.0534 2.5902 13.7861 0.959029 11.1025C-0.122596 8.99929 -0.244338 6.84109 0.593795 4.62793C1.81832 1.94842 3.89352 0.421076 6.81938 0.0459002ZM10.1397 3.93067C10.1869 3.93761 10.2312 3.95421 10.2725 3.98047C10.6101 4.25164 10.9476 4.52278 11.2852 4.79395C11.3073 4.86035 11.3073 4.92676 11.2852 4.99317C9.75623 6.93156 8.23998 8.87949 6.73637 10.8369C6.66867 10.9157 6.59121 10.9821 6.50395 11.0361C5.54309 10.1639 4.60234 9.2674 3.68169 8.34668C3.65954 8.29133 3.65954 8.23602 3.68169 8.18067C3.992 7.82609 4.32403 7.49406 4.67778 7.18457C4.76042 7.24497 4.84343 7.30583 4.9268 7.36719C5.38706 7.83854 5.85745 8.29784 6.33794 8.74512C7.55699 7.20516 8.76339 5.65567 9.95708 4.09668C10.0145 4.03353 10.0754 3.97818 10.1397 3.93067Z" fill="#00A6BD"/>
</g>
<defs>
<clipPath id="clip0_59_2">
<rect width="15" height="15" fill="white"/>
</clipPath>
</defs>
</svg>
