<svg width="34" height="34" viewBox="0 0 34 34" fill="none" xmlns="http://www.w3.org/2000/svg">
<g clip-path="url(#clip0_94_105)">
<path opacity="0.85" fill-rule="evenodd" clip-rule="evenodd" d="M12.617 0.664205C13.6862 0.419203 14.306 0.817641 14.4764 1.85952C13.9063 3.84716 12.8881 5.57373 11.4217 7.03921C11.2446 7.74755 11.2446 8.45586 11.4217 9.16421C12.0174 9.84806 12.5044 10.6007 12.8826 11.422C12.7337 12.1464 12.291 12.5448 11.5545 12.6173C10.9225 12.3671 10.347 12.013 9.82793 11.5548C8.06859 8.31676 8.59984 5.48341 11.4217 3.05483C11.7979 2.22899 12.1963 1.43211 12.617 0.664205Z" fill="#000F2B"/>
<path opacity="0.85" fill-rule="evenodd" clip-rule="evenodd" d="M17.9295 0.664181C18.9811 0.419232 19.6008 0.817669 19.7889 1.85949C19.6207 2.7538 19.3108 3.59493 18.8592 4.38293C17.7835 5.5167 16.9424 6.80054 16.3357 8.23449C16.8453 9.36321 17.465 10.4257 18.1951 11.422C18.0462 12.1464 17.6035 12.5448 16.867 12.6173C13.9661 10.8635 13.302 8.47289 14.8748 5.44543C16.1818 4.01183 17.2 2.41807 17.9295 0.664181Z" fill="#000F2B"/>
<path opacity="0.908" fill-rule="evenodd" clip-rule="evenodd" d="M33.8672 20.5859C33.8672 21.6484 33.8672 22.7109 33.8672 23.7734C32.2873 26.4992 29.8966 27.5174 26.6953 26.8281C26.1666 28.4166 25.1926 29.656 23.7734 30.5469C25.2787 30.6353 26.7838 30.7241 28.2891 30.8125C28.9717 31.5345 28.9717 32.2429 28.2891 32.9375C18.7962 33.1569 9.32219 33.1126 -0.132812 32.8047C-0.132812 32.2734 -0.132812 31.7422 -0.132812 31.2109C0.0768001 31.1358 0.253883 31.003 0.398438 30.8125C1.8151 30.7241 3.23178 30.6353 4.64844 30.5469C3.19812 29.5372 2.26843 28.1648 1.85938 26.4297C1.43321 22.4552 1.25613 18.4708 1.32812 14.4766C1.46094 14.3438 1.59375 14.2109 1.72656 14.0781C10.0495 13.901 18.3724 13.901 26.6953 14.0781C26.8281 14.2109 26.9609 14.3438 27.0938 14.4766C27.2263 15.5354 27.2707 16.5979 27.2266 17.6641C30.1516 17.1589 32.3651 18.1328 33.8672 20.5859ZM3.58594 16.3359C10.6693 16.3359 17.7526 16.3359 24.8359 16.3359C24.7385 19.3471 24.6057 22.3575 24.4375 25.3672C24.1858 27.2128 23.1675 28.4081 21.3828 28.9531C16.6901 29.1303 11.9974 29.1303 7.30469 28.9531C5.86755 28.4901 4.84933 27.5605 4.25 26.1641C3.97396 22.8902 3.75262 19.6142 3.58594 16.3359ZM27.2266 20.0547C28.8718 19.764 30.2443 20.2068 31.3438 21.3828C31.7053 22.651 31.3068 23.5807 30.1484 24.1719C29.0897 24.3044 28.0272 24.3487 26.9609 24.3047C26.9142 22.8757 27.0029 21.4591 27.2266 20.0547Z" fill="#000F2B"/>
</g>
<defs>
<clipPath id="clip0_94_105">
<rect width="34" height="34" fill="white"/>
</clipPath>
</defs>
</svg>
