<svg width="34" height="34" viewBox="0 0 34 34" fill="none" xmlns="http://www.w3.org/2000/svg">
<g clip-path="url(#clip0_94_112)">
<path opacity="0.865" fill-rule="evenodd" clip-rule="evenodd" d="M25.6329 -0.132812C26.2527 -0.132812 26.8726 -0.132812 27.4923 -0.132812C27.9035 0.599906 27.815 1.26397 27.2267 1.85938C19.8606 5.36156 12.4231 8.68187 4.91416 11.8203C3.92444 11.7411 3.61454 11.2098 3.98447 10.2266C4.11728 10.0938 4.2501 9.96094 4.38291 9.82812C6.81412 8.74523 9.20475 7.59417 11.5548 6.375C10.8556 4.31686 11.3869 2.63458 13.1485 1.32812C15.634 0.348497 17.6262 0.924019 19.1251 3.05469C21.3309 2.01801 23.5002 0.955512 25.6329 -0.132812ZM14.7423 3.05469C15.6616 2.89252 16.37 3.2024 16.8673 3.98438C15.8933 4.47135 14.9194 4.95834 13.9454 5.44531C13.6798 5.35678 13.5027 5.17969 13.4142 4.91406C13.5642 4.05987 14.0069 3.44008 14.7423 3.05469Z" fill="#000F2B"/>
<path opacity="0.85" fill-rule="evenodd" clip-rule="evenodd" d="M25.1013 4.11729C25.8152 4.0737 26.5235 4.11798 27.2263 4.2501C27.5161 4.79833 27.5605 5.37383 27.3592 5.97667C26.4897 6.17753 25.6929 6.53169 24.9685 7.03917C25.1 10.5394 23.462 12.0889 20.0545 11.6876C19.7686 11.2291 19.7243 10.7421 19.9217 10.2267C20.6614 9.8562 21.414 9.50204 22.1795 9.16417C22.3721 7.77391 22.7705 6.44579 23.3748 5.17979C23.9095 4.71543 24.485 4.36127 25.1013 4.11729Z" fill="#000F2B"/>
<path opacity="0.857" fill-rule="evenodd" clip-rule="evenodd" d="M30.9454 4.11729C31.8769 3.98275 32.7181 4.15985 33.4688 4.64854C33.646 5.0027 33.646 5.35689 33.4688 5.71104C32.7173 6.14409 31.9205 6.49825 31.0782 6.77354C30.8125 7.92458 30.5469 9.07564 30.2813 10.2267C29.29 11.6999 27.9175 12.1868 26.1641 11.6876C25.5058 11.1728 25.4615 10.5973 26.0313 9.96104C26.775 9.79434 27.4835 9.52871 28.1563 9.16417C28.4132 7.89924 28.7675 6.65964 29.2188 5.44542C29.7408 4.90081 30.3164 4.45809 30.9454 4.11729Z" fill="#000F2B"/>
<path opacity="0.915" fill-rule="evenodd" clip-rule="evenodd" d="M33.8672 15.5391C33.8672 16.513 33.8672 17.487 33.8672 18.4609C33.1386 20.2066 31.8548 21.3576 30.0156 21.9141C29.9272 24.8359 29.8385 27.7578 29.75 30.6797C29.0352 32.058 28.0171 33.1205 26.6953 33.8672C20.1432 33.8672 13.5912 33.8672 7.03906 33.8672C5.71734 33.1205 4.69909 32.058 3.98438 30.6797C3.89584 27.7578 3.80728 24.8359 3.71875 21.9141C1.87957 21.3576 0.595712 20.2066 -0.132812 18.4609C-0.132812 17.487 -0.132812 16.513 -0.132812 15.5391C0.370579 14.7271 1.07891 14.1516 1.99219 13.8125C11.9088 13.6354 21.8255 13.6354 31.7422 13.8125C32.6554 14.1516 33.3638 14.7271 33.8672 15.5391ZM2.78906 15.8047C3.14322 15.8047 3.4974 15.8047 3.85156 15.8047C3.93805 16.9692 3.84949 18.1202 3.58594 19.2578C1.9097 18.31 1.64408 17.159 2.78906 15.8047ZM5.97656 15.8047C13.237 15.8047 20.4974 15.8047 27.7578 15.8047C27.8022 20.4097 27.7578 25.0139 27.625 29.6172C27.315 30.6353 26.651 31.2994 25.6328 31.6094C19.7891 31.7866 13.9453 31.7866 8.10156 31.6094C7.08334 31.2994 6.41928 30.6353 6.10938 29.6172C5.97659 25.0139 5.93231 20.4097 5.97656 15.8047ZM29.8828 15.8047C31.7106 15.7755 32.1975 16.5724 31.3438 18.1953C30.9849 18.5988 30.5865 18.953 30.1484 19.2578C29.8849 18.1202 29.7962 16.9692 29.8828 15.8047Z" fill="#000F2B"/>
</g>
<defs>
<clipPath id="clip0_94_112">
<rect width="34" height="34" fill="white"/>
</clipPath>
</defs>
</svg>
