<svg width="192" height="70" viewBox="0 0 192 70" fill="none" xmlns="http://www.w3.org/2000/svg">
<g clip-path="url(#clip0_6_8)">
<path d="M10.2266 7.65627C7.82031 8.36721 5.19531 10.6641 4.04688 12.961C3.28125 14.6563 3.00781 16.7344 2.84375 24.0078C2.625 32.1563 2.46094 33.25 1.3125 35.4375C0.0546875 37.7891 0 38.336 0 49.711C0 58.2422 0.164062 61.7422 0.65625 62.2344C1.42188 63 10.2812 63.1094 11.4297 62.3985C11.9219 62.0703 12.3047 60.5391 12.4141 58.1875C12.5781 56.1094 12.7422 54.3594 12.8516 54.25C12.9062 54.1406 15.9141 54.3594 19.4688 54.6328C27.7266 55.3985 42.7656 55.3985 50.8047 54.6875C54.25 54.3594 57.1484 54.1953 57.2578 54.3047C57.3672 54.4141 57.5312 56.1641 57.6406 58.1875C57.75 60.6485 58.0781 62.0703 58.5703 62.3985C59.7188 63.1094 68.5781 63 69.3438 62.2344C69.8359 61.7422 70 58.2422 70 49.711C70 38.336 69.9453 37.7891 68.6875 35.4375C67.5391 33.25 67.375 32.1563 67.1562 24.0078C66.8828 13.6172 66.2266 11.5391 62.2344 8.91408L59.9375 7.38283L35.875 7.27346C22.5859 7.21877 11.0469 7.38283 10.2266 7.65627ZM60.8125 13.0703L62.6172 14.6563L62.7812 22.5313L62.9453 30.4063L61.0312 30.1875C59.9375 30.0781 59.0625 29.6953 59.0078 29.3125C58.8438 26.0313 58.3516 23.6797 57.6406 22.9141C54.9062 19.9063 40.5234 20.3438 38.8281 23.5156C38.5547 24.0625 38.2812 25.7578 38.2812 27.2891V30.0781H35H31.7188V27.2891C31.7188 25.7578 31.4453 24.0625 31.1719 23.5156C29.4766 20.3438 15.0938 19.9063 12.3594 22.9141C11.6484 23.6797 11.1562 26.0313 10.9922 29.3125C10.9375 29.6953 10.0625 30.0781 8.96875 30.1875L7.05469 30.4063L7.21875 22.5313L7.38281 14.6563L9.1875 13.0703L10.9375 11.4844H35H59.0625L60.8125 13.0703ZM27.125 25.5391C27.6172 25.7031 27.8906 26.6328 27.8906 27.9453V30.0781H21.6016H15.3125V27.8906C15.3125 26.086 15.5312 25.7031 16.5703 25.4844C17.2266 25.3203 18.2656 25.1016 18.8672 24.9375C20.0703 24.6641 25.9219 25.0469 27.125 25.5391ZM53.9219 25.5391C54.4141 25.7031 54.6875 26.6328 54.6875 27.9453V30.0781H48.3984H42.1094V27.8906C42.1094 26.086 42.3281 25.7031 43.3672 25.4844C44.0234 25.3203 45.0625 25.1016 45.6641 24.9375C46.8672 24.6641 52.7188 25.0469 53.9219 25.5391ZM62.2891 34.8906C63.3281 35.3828 64.5312 36.3672 64.9688 37.0235L65.7344 38.2813H35H4.26562L5.03125 37.0235C5.46875 36.3672 6.67188 35.3828 7.71094 34.8906C9.40625 34.0156 11.8672 33.9063 35 33.9063C58.1328 33.9063 60.5938 34.0156 62.2891 34.8906ZM65.625 50.3125V58.5156H63.7109H61.7969V54.7422C61.7969 49.5469 61.6875 49.4922 53.7578 50.3125C45.4453 51.1875 25.7578 51.1875 16.7891 50.3672C8.20312 49.4922 8.20312 49.4922 8.20312 54.7422V58.5156H6.28906H4.375V50.3125V42.1094H35H65.625V50.3125Z" fill="white"/>
</g>
<path d="M102.366 17.6C103.956 17.6 105.171 17.78 106.011 18.14C106.851 18.5 107.586 18.89 108.216 19.31C108.576 19.52 108.861 19.685 109.071 19.805C109.311 19.895 109.536 19.94 109.746 19.94C110.046 19.94 110.256 19.775 110.376 19.445C110.526 19.115 110.646 18.62 110.736 17.96H111.771C111.741 18.5 111.696 19.145 111.636 19.895C111.606 20.615 111.576 21.575 111.546 22.775C111.546 23.975 111.546 25.55 111.546 27.5H110.511C110.421 26.03 110.091 24.605 109.521 23.225C108.981 21.845 108.171 20.72 107.091 19.85C106.041 18.98 104.691 18.545 103.041 18.545C101.511 18.545 100.236 19.01 99.2159 19.94C98.2259 20.84 97.7309 22.04 97.7309 23.54C97.7309 24.86 98.0609 25.97 98.7209 26.87C99.3809 27.74 100.281 28.565 101.421 29.345C102.591 30.095 103.911 30.935 105.381 31.865C106.881 32.825 108.231 33.785 109.431 34.745C110.631 35.675 111.576 36.71 112.266 37.85C112.956 38.99 113.301 40.37 113.301 41.99C113.301 43.94 112.836 45.56 111.906 46.85C111.006 48.11 109.791 49.055 108.261 49.685C106.731 50.315 105.051 50.63 103.221 50.63C101.541 50.63 100.206 50.45 99.2159 50.09C98.2259 49.73 97.3859 49.355 96.6959 48.965C96.0359 48.545 95.5259 48.335 95.1659 48.335C94.8659 48.335 94.6409 48.5 94.4909 48.83C94.3709 49.16 94.2659 49.655 94.1759 50.315H93.1409C93.2009 49.655 93.2309 48.89 93.2309 48.02C93.2609 47.12 93.2759 45.95 93.2759 44.51C93.3059 43.07 93.3209 41.255 93.3209 39.065H94.3559C94.4759 40.925 94.8059 42.665 95.3459 44.285C95.9159 45.905 96.7709 47.21 97.9109 48.2C99.0809 49.16 100.626 49.64 102.546 49.64C103.566 49.64 104.511 49.445 105.381 49.055C106.251 48.665 106.956 48.05 107.496 47.21C108.036 46.37 108.306 45.29 108.306 43.97C108.306 42.74 108.006 41.66 107.406 40.73C106.836 39.8 106.026 38.945 104.976 38.165C103.956 37.355 102.756 36.53 101.376 35.69C99.9659 34.79 98.6459 33.89 97.4159 32.99C96.1859 32.09 95.1959 31.04 94.4459 29.84C93.7259 28.64 93.3659 27.215 93.3659 25.565C93.3659 23.735 93.7859 22.235 94.6259 21.065C95.4959 19.895 96.6059 19.025 97.9559 18.455C99.3359 17.885 100.806 17.6 102.366 17.6ZM127.867 26.15C129.877 26.15 131.662 26.57 133.222 27.41C134.782 28.25 136.027 29.57 136.957 31.37C137.887 33.17 138.352 35.525 138.352 38.435C138.352 41.345 137.887 43.7 136.957 45.5C136.027 47.27 134.782 48.575 133.222 49.415C131.662 50.225 129.877 50.63 127.867 50.63C125.887 50.63 124.102 50.225 122.512 49.415C120.922 48.575 119.662 47.27 118.732 45.5C117.832 43.7 117.382 41.345 117.382 38.435C117.382 35.525 117.832 33.17 118.732 31.37C119.662 29.57 120.922 28.25 122.512 27.41C124.102 26.57 125.887 26.15 127.867 26.15ZM127.867 27.05C126.307 27.05 125.032 27.95 124.042 29.75C123.052 31.52 122.557 34.415 122.557 38.435C122.557 42.455 123.052 45.35 124.042 47.12C125.032 48.86 126.307 49.73 127.867 49.73C129.397 49.73 130.657 48.86 131.647 47.12C132.667 45.35 133.177 42.455 133.177 38.435C133.177 34.415 132.667 31.52 131.647 29.75C130.657 27.95 129.397 27.05 127.867 27.05ZM156.969 14.81C157.929 14.81 158.799 14.87 159.579 14.99C160.389 15.11 161.109 15.275 161.739 15.485C162.369 15.695 162.909 15.95 163.359 16.25C163.869 16.55 164.274 16.925 164.574 17.375C164.874 17.825 165.024 18.335 165.024 18.905C165.024 19.805 164.709 20.555 164.079 21.155C163.449 21.725 162.654 22.01 161.694 22.01C160.734 22.01 159.939 21.725 159.309 21.155C158.679 20.555 158.364 19.82 158.364 18.95C158.364 18.35 158.529 17.81 158.859 17.33C159.219 16.82 159.714 16.43 160.344 16.16C159.984 15.95 159.504 15.8 158.904 15.71C158.334 15.59 157.749 15.53 157.149 15.53C155.649 15.53 154.389 15.845 153.369 16.475C152.379 17.075 151.584 17.9 150.984 18.95C150.564 19.7 150.249 20.66 150.039 21.83C149.859 22.97 149.769 24.635 149.769 26.825H156.384C157.704 26.825 158.829 26.81 159.759 26.78C160.719 26.75 161.574 26.705 162.324 26.645C163.104 26.555 163.854 26.435 164.574 26.285V45.815C164.574 47.075 164.829 47.93 165.339 48.38C165.849 48.83 166.704 49.055 167.904 49.055V50C167.364 49.97 166.554 49.94 165.474 49.91C164.394 49.85 163.299 49.82 162.189 49.82C161.109 49.82 160.014 49.85 158.904 49.91C157.824 49.94 157.014 49.97 156.474 50V49.055C157.644 49.055 158.469 48.83 158.949 48.38C159.459 47.93 159.714 47.075 159.714 45.815V31.685C159.714 30.335 159.474 29.345 158.994 28.715C158.544 28.055 157.674 27.725 156.384 27.725H149.769V45.815C149.769 47.105 150.099 47.975 150.759 48.425C151.449 48.845 152.379 49.055 153.549 49.055V50C152.919 49.97 152.034 49.94 150.894 49.91C149.754 49.85 148.584 49.82 147.384 49.82C146.214 49.82 145.089 49.85 144.009 49.91C142.929 49.94 142.119 49.97 141.579 50V49.055C142.779 49.055 143.634 48.83 144.144 48.38C144.654 47.93 144.909 47.075 144.909 45.815V27.725H141.399V26.825H144.909C144.909 24.935 145.164 23.24 145.674 21.74C146.214 20.21 147.069 18.89 148.239 17.78C149.199 16.91 150.399 16.205 151.839 15.665C153.309 15.095 155.019 14.81 156.969 14.81ZM176.399 50.315C175.139 50.315 174.059 50.075 173.159 49.595C172.259 49.115 171.584 48.455 171.134 47.615C170.684 46.775 170.459 45.815 170.459 44.735C170.459 43.415 170.759 42.35 171.359 41.54C171.959 40.7 172.724 40.025 173.654 39.515C174.614 39.005 175.619 38.585 176.669 38.255C177.749 37.895 178.754 37.565 179.684 37.265C180.644 36.935 181.424 36.56 182.024 36.14C182.654 35.72 182.969 35.165 182.969 34.475V31.415C182.969 30.335 182.789 29.48 182.429 28.85C182.099 28.19 181.634 27.725 181.034 27.455C180.464 27.185 179.774 27.05 178.964 27.05C178.274 27.05 177.539 27.155 176.759 27.365C175.979 27.545 175.364 27.92 174.914 28.49C175.574 28.67 176.114 29.03 176.534 29.57C176.984 30.08 177.209 30.725 177.209 31.505C177.209 32.345 176.924 33.005 176.354 33.485C175.814 33.965 175.124 34.205 174.284 34.205C173.354 34.205 172.664 33.92 172.214 33.35C171.764 32.75 171.539 32.06 171.539 31.28C171.539 30.47 171.734 29.81 172.124 29.3C172.544 28.79 173.084 28.31 173.744 27.86C174.464 27.38 175.379 26.975 176.489 26.645C177.629 26.315 178.889 26.15 180.269 26.15C181.559 26.15 182.669 26.3 183.599 26.6C184.559 26.87 185.354 27.32 185.984 27.95C186.734 28.64 187.229 29.51 187.469 30.56C187.709 31.58 187.829 32.825 187.829 34.295V46.715C187.829 47.465 187.919 48.005 188.099 48.335C188.309 48.635 188.639 48.785 189.089 48.785C189.389 48.785 189.674 48.71 189.944 48.56C190.244 48.41 190.589 48.185 190.979 47.885L191.429 48.65C190.799 49.16 190.154 49.565 189.494 49.865C188.864 50.165 188.054 50.315 187.064 50.315C186.104 50.315 185.324 50.165 184.724 49.865C184.124 49.565 183.674 49.13 183.374 48.56C183.104 47.99 182.969 47.285 182.969 46.445C182.189 47.705 181.259 48.665 180.179 49.325C179.099 49.985 177.839 50.315 176.399 50.315ZM178.559 48.155C179.399 48.155 180.179 47.915 180.899 47.435C181.649 46.955 182.339 46.235 182.969 45.275V36.32C182.639 36.8 182.159 37.22 181.529 37.58C180.899 37.91 180.224 38.255 179.504 38.615C178.784 38.975 178.094 39.395 177.434 39.875C176.804 40.325 176.279 40.91 175.859 41.63C175.439 42.35 175.229 43.265 175.229 44.375C175.229 45.545 175.529 46.475 176.129 47.165C176.729 47.825 177.539 48.155 178.559 48.155Z" fill="white"/>
<defs>
<clipPath id="clip0_6_8">
<rect width="70" height="70" fill="white"/>
</clipPath>
</defs>
</svg>
