<svg width="34" height="34" viewBox="0 0 34 34" fill="none" xmlns="http://www.w3.org/2000/svg">
<g clip-path="url(#clip0_94_136)">
<path opacity="0.861" fill-rule="evenodd" clip-rule="evenodd" d="M13.6797 -0.132812C15.8047 -0.132812 17.9297 -0.132812 20.0547 -0.132812C27.4037 1.72656 32.0078 6.33072 33.8672 13.6797C33.8672 15.8047 33.8672 17.9297 33.8672 20.0547C32.0078 27.4037 27.4037 32.0078 20.0547 33.8672C17.9297 33.8672 15.8047 33.8672 13.6797 33.8672C6.33072 32.0078 1.72656 27.4037 -0.132812 20.0547C-0.132812 17.9297 -0.132812 15.8047 -0.132812 13.6797C1.72656 6.33072 6.33072 1.72656 13.6797 -0.132812ZM15.0078 1.99219C19.3136 1.67285 23.1209 2.86817 26.4297 5.57812C23.7734 8.23438 21.1172 10.8906 18.4609 13.5469C14.275 13.555 10.1135 13.732 5.97656 14.0781C5.67255 15.8717 5.62827 17.6868 5.84375 19.5234C6.04308 19.6897 6.26445 19.8225 6.50781 19.9219C8.27865 20.0104 10.0495 20.099 11.8203 20.1875C9.73959 22.2682 7.65885 24.349 5.57812 26.4297C1.00939 20.3683 0.832304 14.1704 5.04688 7.83594C7.64665 4.61194 10.967 2.66403 15.0078 1.99219ZM28.0234 7.30469C31.8551 11.9047 32.6963 17.0401 30.5469 22.7109C26.7097 30.0525 20.733 32.8416 12.6172 31.0781C10.6072 30.5163 8.83639 29.5423 7.30469 28.1562C9.96094 25.5 12.6172 22.8438 15.2734 20.1875C19.2578 20.099 23.2422 20.0104 27.2266 19.9219C27.4699 19.8225 27.6914 19.6897 27.8906 19.5234C28.0678 17.7526 28.0678 15.9818 27.8906 14.2109C27.6914 14.0447 27.4699 13.9119 27.2266 13.8125C25.4557 13.724 23.6849 13.6354 21.9141 13.5469C24.0043 11.5011 26.0408 9.42036 28.0234 7.30469ZM8.10156 16.0703C10.6708 16.0261 13.2385 16.0704 15.8047 16.2031C15.362 16.6458 14.9193 17.0885 14.4766 17.5312C12.3534 17.664 10.2284 17.7083 8.10156 17.6641C8.10156 17.1328 8.10156 16.6016 8.10156 16.0703ZM19.2578 16.0703C19.738 16.4469 19.9151 16.9782 19.7891 17.6641C19.163 17.7074 18.5432 17.6632 17.9297 17.5312C18.4273 17.0787 18.87 16.5917 19.2578 16.0703ZM21.9141 16.0703C23.1537 16.0703 24.3932 16.0703 25.6328 16.0703C25.6328 16.6016 25.6328 17.1328 25.6328 17.6641C24.3932 17.6641 23.1537 17.6641 21.9141 17.6641C21.9141 17.1328 21.9141 16.6016 21.9141 16.0703Z" fill="#000F2B"/>
<path opacity="0.856" fill-rule="evenodd" clip-rule="evenodd" d="M12.0859 5.17992C12.6949 5.11182 13.2704 5.20035 13.8125 5.44555C14.4472 8.26139 13.3404 9.81088 10.4922 10.094C10.1087 10.5624 9.84308 11.0937 9.69531 11.6877C8.50627 12.3605 7.88646 12.0063 7.83594 10.6252C7.86117 9.60117 8.30386 8.8043 9.16406 8.23461C10.0033 8.00652 10.8002 7.69661 11.5547 7.30492C11.7325 6.58867 11.9095 5.88032 12.0859 5.17992Z" fill="#000F2B"/>
</g>
<defs>
<clipPath id="clip0_94_136">
<rect width="34" height="34" fill="white"/>
</clipPath>
</defs>
</svg>
