<svg width="34" height="34" viewBox="0 0 34 34" fill="none" xmlns="http://www.w3.org/2000/svg">
<g clip-path="url(#clip0_94_158)">
<path opacity="0.814" fill-rule="evenodd" clip-rule="evenodd" d="M16.8673 -0.132812C17.8412 -0.132812 18.8152 -0.132812 19.7892 -0.132812C19.9269 1.15026 19.4842 2.25703 18.461 3.1875C18.985 3.31912 19.5163 3.36337 20.0548 3.32031C20.0548 3.67447 20.0548 4.02865 20.0548 4.38281C19.0091 4.46077 17.9909 4.37221 17.0001 4.11719C16.823 3.76303 16.823 3.40885 17.0001 3.05469C17.4509 2.47057 17.8493 1.85077 18.1954 1.19531C17.7763 0.983397 17.3336 0.850584 16.8673 0.796875C16.5527 0.49261 16.5527 0.182715 16.8673 -0.132812Z" fill="#000F2B"/>
<path opacity="0.786" fill-rule="evenodd" clip-rule="evenodd" d="M20.8516 33.8674C19.2578 33.8674 17.6641 33.8674 16.0703 33.8674C15.9952 33.6578 15.8624 33.4806 15.6719 33.3361C15.5391 31.3017 15.4949 29.2652 15.5391 27.2267C8.84813 26.1585 4.77522 22.307 3.32031 15.6721C3.18962 14.692 3.54378 14.3821 4.38281 14.7424C5.54853 21.0435 9.26728 24.7623 15.5391 25.8986C15.6523 23.1329 15.5195 20.3881 15.1406 17.6642C14.2646 16.5221 13.2906 15.4596 12.2188 14.4767C9.84528 10.8696 9.35831 7.01803 10.7578 2.92206C10.6693 2.78925 10.5807 2.65644 10.4922 2.52362C6.59403 5.09479 4.55757 8.72498 4.38281 13.4142C3.64955 13.5697 3.20684 13.3041 3.05469 12.6174C3.48264 8.35234 5.34201 4.85493 8.63281 2.12519C9.24524 1.59765 9.95358 1.28775 10.7578 1.1955C11.2556 1.16622 11.654 1.3433 11.9531 1.72675C12.1477 2.93242 11.9706 4.08348 11.4219 5.17987C10.7829 8.73582 11.6683 11.8348 14.0781 14.4767C15.4236 13.6149 16.8846 13.305 18.4609 13.5471C19.4639 13.9734 19.9952 14.726 20.0547 15.8049C21.1209 15.7609 22.1834 15.8052 23.2422 15.9377C24.1513 16.2377 24.9925 16.6362 25.7656 17.133C26.8866 16.639 27.9934 16.1077 29.0859 15.5392C29.9992 15.6113 30.5304 16.0983 30.6797 17.0002C30.0876 19.2924 28.9808 21.2846 27.3594 22.9767C27.2709 23.9507 27.1822 24.9247 27.0938 25.8986C26.7397 26.2528 26.3854 26.2528 26.0312 25.8986C25.9427 24.0392 25.8542 22.1799 25.7656 20.3205C24.8069 17.6483 22.9032 16.4972 20.0547 16.8674C20.0988 18.2868 20.0545 19.7035 19.9219 21.1174C19.6562 21.4715 19.3906 21.4715 19.125 21.1174C19.0962 19.1487 18.9191 17.2008 18.5938 15.2736C18.2947 14.8902 17.8962 14.7131 17.3984 14.7424C16.5801 14.8823 15.7833 15.1036 15.0078 15.4064C15.7078 15.9272 16.1948 16.5913 16.4688 17.3986C16.5573 22.4455 16.6458 27.4924 16.7344 32.5392C18.4627 33.0506 20.0564 32.785 21.5156 31.7424C21.6927 31.3883 21.8698 31.034 22.0469 30.6799C22.1796 28.3796 22.2239 26.0774 22.1797 23.7736C22.6163 23.7169 23.0148 23.8054 23.375 24.0392C23.5077 25.4531 23.5519 26.8697 23.5078 28.2892C24.4271 28.4515 25.1355 28.1416 25.6328 27.3596C25.9763 27.2294 26.3305 27.185 26.6953 27.2267C26.4142 29.0086 25.3517 29.8054 23.5078 29.6174C23.4202 31.5692 22.5348 32.9858 20.8516 33.8674ZM29.0859 16.8674C28.9885 18.3125 28.4128 19.6406 27.3594 20.8517C27.0823 20.093 26.7723 19.3404 26.4297 18.5939C27.3777 18.0782 28.263 17.5026 29.0859 16.8674Z" fill="#000F2B"/>
<path opacity="0.74" fill-rule="evenodd" clip-rule="evenodd" d="M25.6326 3.05493C26.5225 3.0111 27.4078 3.05538 28.2889 3.18774C28.7434 3.48874 28.8762 3.88718 28.6873 4.38305C28.2366 4.96716 27.8381 5.58697 27.492 6.24243C28.5213 6.29696 28.9638 6.82821 28.8201 7.83618C27.7744 7.91414 26.7562 7.82558 25.7655 7.57055C25.5884 7.21639 25.5884 6.86221 25.7655 6.50805C26.1973 5.86601 26.5958 5.20195 26.9608 4.51586C25.6628 4.67983 25.2201 4.19284 25.6326 3.05493Z" fill="#000F2B"/>
<path opacity="0.742" fill-rule="evenodd" clip-rule="evenodd" d="M19.7889 7.30459C23.3566 6.95824 23.8879 8.06499 21.3826 10.6249C21.8254 10.7134 22.2681 10.802 22.7108 10.8905C23.0649 11.2447 23.0649 11.5989 22.7108 11.953C19.4288 12.4057 18.8976 11.3432 21.117 8.76553C19.8191 8.9295 19.3764 8.4425 19.7889 7.30459Z" fill="#000F2B"/>
</g>
<defs>
<clipPath id="clip0_94_158">
<rect width="34" height="34" fill="white"/>
</clipPath>
</defs>
</svg>
