<svg width="34" height="34" viewBox="0 0 34 34" fill="none" xmlns="http://www.w3.org/2000/svg">
<g clip-path="url(#clip0_94_167)">
<path opacity="0.891" fill-rule="evenodd" clip-rule="evenodd" d="M31.4766 -0.132812C32.0078 -0.132812 32.5391 -0.132812 33.0703 -0.132812C33.3458 0.461529 33.3899 1.08132 33.2031 1.72656C30.2709 7.63523 27.3049 13.5232 24.3047 19.3906C26.2951 19.875 27.4462 21.1146 27.7578 23.1094C27.6803 24.0122 27.3262 24.7648 26.6953 25.3672C23.0606 23.6389 19.5189 21.7795 16.0703 19.7891C16.849 17.6288 18.3542 16.8762 20.5859 17.5312C21.1826 17.8074 21.7581 18.1173 22.3125 18.4609C25.443 12.2887 28.4976 6.09078 31.4766 -0.132812Z" fill="#000F2B"/>
<path opacity="0.932" fill-rule="evenodd" clip-rule="evenodd" d="M20.5859 33.8672C19.9662 33.8672 19.3464 33.8672 18.7266 33.8672C17.3684 33.0546 15.9517 32.3021 14.4766 31.6094C14.3199 31.2085 14.1428 30.8101 13.9453 30.4141C13.0774 30.5177 12.192 30.3848 11.2891 30.0156C9.69532 29.2188 8.10157 28.4219 6.50782 27.625C5.79948 27.0053 5.79948 26.3854 6.50782 25.7656C8.22623 25.358 9.90851 24.8267 11.5547 24.1719C12.9098 23.4773 14.1494 22.6361 15.2734 21.6484C18.9374 23.2589 22.4791 25.074 25.8984 27.0938C24.3783 29.5441 22.6075 31.802 20.5859 33.8672Z" fill="#000F2B"/>
<path opacity="0.777" fill-rule="evenodd" clip-rule="evenodd" d="M0.664172 25.8984C2.42917 25.7595 2.87189 26.4236 1.9923 27.8906C0.526089 27.9889 0.0833819 27.3248 0.664172 25.8984Z" fill="#000F2B"/>
<path opacity="0.777" fill-rule="evenodd" clip-rule="evenodd" d="M4.9141 27.7577C6.29756 27.7229 6.74025 28.3426 6.24223 29.6171C5.65924 29.9542 5.08371 29.9542 4.51567 29.6171C4.29918 28.9005 4.432 28.2805 4.9141 27.7577Z" fill="#000F2B"/>
<path opacity="0.882" fill-rule="evenodd" clip-rule="evenodd" d="M8.1017 33.8671C6.06523 33.8671 4.02879 33.8671 1.99232 33.8671C0.558308 33.0311 0.0713292 31.7915 0.531387 30.1483C1.09943 29.8112 1.67495 29.8112 2.25795 30.1483C2.39976 30.7098 2.66539 31.197 3.05482 31.6093C4.75052 31.664 6.4328 31.7968 8.1017 32.0077C8.42425 32.6343 8.42425 33.254 8.1017 33.8671Z" fill="#000F2B"/>
<path opacity="0.777" fill-rule="evenodd" clip-rule="evenodd" d="M12.086 33.8674C11.5547 33.8674 11.0235 33.8674 10.4922 33.8674C9.91298 32.2346 10.4442 31.6149 12.086 32.008C12.4085 32.6346 12.4085 33.2543 12.086 33.8674Z" fill="#000F2B"/>
</g>
<defs>
<clipPath id="clip0_94_167">
<rect width="34" height="34" fill="white"/>
</clipPath>
</defs>
</svg>
