<svg width="180" height="31" viewBox="0 0 180 31" fill="none" xmlns="http://www.w3.org/2000/svg">
<path d="M8.144 30.324C6.464 30.324 5.06 29.964 3.932 29.244C2.828 28.524 1.988 27.528 1.412 26.256C0.836 24.984 0.5 23.508 0.404 21.828L4.004 20.856C4.076 21.888 4.232 22.884 4.472 23.844C4.736 24.804 5.156 25.596 5.732 26.22C6.308 26.82 7.112 27.12 8.144 27.12C9.2 27.12 9.992 26.832 10.52 26.256C11.072 25.656 11.348 24.804 11.348 23.7C11.348 22.38 11.048 21.324 10.448 20.532C9.848 19.716 9.092 18.9 8.18 18.084L3.284 13.764C2.324 12.924 1.616 12.012 1.16 11.028C0.704 10.02 0.476 8.784 0.476 7.32C0.476 5.184 1.088 3.528 2.312 2.352C3.536 1.176 5.204 0.587999 7.316 0.587999C8.468 0.587999 9.476 0.743999 10.34 1.056C11.228 1.344 11.96 1.8 12.536 2.424C13.136 3.048 13.604 3.84 13.94 4.8C14.3 5.736 14.54 6.84 14.66 8.112L11.204 9.048C11.132 8.088 10.988 7.212 10.772 6.42C10.556 5.604 10.172 4.956 9.62 4.476C9.092 3.972 8.324 3.72 7.316 3.72C6.308 3.72 5.516 3.996 4.94 4.548C4.388 5.076 4.112 5.868 4.112 6.924C4.112 7.812 4.256 8.544 4.544 9.12C4.856 9.696 5.348 10.284 6.02 10.884L10.952 15.204C12.056 16.164 13.028 17.316 13.868 18.66C14.708 19.98 15.128 21.552 15.128 23.376C15.128 24.816 14.828 26.064 14.228 27.12C13.628 28.152 12.8 28.944 11.744 29.496C10.712 30.048 9.512 30.324 8.144 30.324ZM18.2836 30V0.839998H22.3516V13.44H29.8396V0.839998H33.9076V30H29.8396V16.356H22.3516V30H18.2836ZM38.6793 30V0.839998H42.6753V30H38.6793ZM47.393 30V0.839998H51.461V27.084H58.913V30H47.393ZM61.7016 30V0.839998H64.4736L72.7536 20.208V0.839998H76.1376V30H73.5456L65.1576 10.092V30H61.7016ZM80.9371 30V0.839998H84.9331V30H80.9371ZM89.6508 30V0.839998H93.7188V14.592L100.415 0.839998H104.195L98.4348 13.692L105.131 30H101.171L95.5908 16.32L93.7188 19.704V30H89.6508ZM114.786 30.324C112.818 30.324 111.246 29.94 110.07 29.172C108.894 28.404 108.054 27.312 107.55 25.896C107.046 24.456 106.794 22.776 106.794 20.856V9.804C106.794 7.884 107.046 6.24 107.55 4.872C108.078 3.48 108.918 2.424 110.07 1.704C111.246 0.959999 112.818 0.587999 114.786 0.587999C116.754 0.587999 118.314 0.959999 119.466 1.704C120.618 2.448 121.446 3.504 121.95 4.872C122.478 6.24 122.742 7.884 122.742 9.804V20.892C122.742 22.788 122.478 24.444 121.95 25.86C121.446 27.276 120.618 28.38 119.466 29.172C118.314 29.94 116.754 30.324 114.786 30.324ZM114.786 27.12C115.866 27.12 116.682 26.904 117.234 26.472C117.786 26.016 118.158 25.392 118.35 24.6C118.542 23.784 118.638 22.836 118.638 21.756V8.976C118.638 7.896 118.542 6.972 118.35 6.204C118.158 5.412 117.786 4.812 117.234 4.404C116.682 3.972 115.866 3.756 114.786 3.756C113.706 3.756 112.878 3.972 112.302 4.404C111.75 4.812 111.378 5.412 111.186 6.204C110.994 6.972 110.898 7.896 110.898 8.976V21.756C110.898 22.836 110.994 23.784 111.186 24.6C111.378 25.392 111.75 26.016 112.302 26.472C112.878 26.904 113.706 27.12 114.786 27.12ZM131.817 30L125.301 0.839998H129.117L133.725 22.332L138.117 0.839998H141.825L135.381 30H131.817ZM144.916 30V0.839998H156.184V3.756H148.984V13.476H154.564V16.356H148.984V30H144.916ZM159.195 30V0.839998H163.191V30H159.195ZM171.113 30V3.864H166.181V0.839998H179.969V3.864H175.181V30H171.113Z" fill="#DED611"/>
</svg>
