<svg width="34" height="34" viewBox="0 0 34 34" fill="none" xmlns="http://www.w3.org/2000/svg">
<g clip-path="url(#clip0_94_141)">
<path opacity="0.893" fill-rule="evenodd" clip-rule="evenodd" d="M7.30469 -0.132812C8.8099 -0.132812 10.3151 -0.132812 11.8203 -0.132812C15.4116 0.890274 17.8023 3.19236 18.9922 6.77344C21.9461 6.65473 24.0711 7.89432 25.3672 10.4922C28.11 11.0701 29.2166 12.7524 28.6875 15.5391C28.0787 16.6782 27.149 17.4308 25.8984 17.7969C22.7109 19.2135 19.5234 20.6302 16.3359 22.0469C13.3366 22.938 11.6544 21.8312 11.2891 18.7266C11.294 17.8767 11.5597 17.1242 12.0859 16.4688C11.0871 13.8706 11.5297 11.5685 13.4141 9.5625C12.4928 6.44555 10.5449 5.47158 7.57031 6.64062C6.78226 7.19857 6.29526 7.95117 6.10938 8.89844C6.06308 17.2404 5.93026 25.5633 5.71094 33.8672C3.85156 33.8672 1.99219 33.8672 0.132812 33.8672C0.132812 33.69 0.0442709 33.6016 -0.132812 33.6016C-0.132812 24.8359 -0.132812 16.0703 -0.132812 7.30469C1.01823 3.4974 3.4974 1.01823 7.30469 -0.132812ZM8.36719 1.99219C12.518 1.8535 15.3513 3.71288 16.8672 7.57031C16.4211 7.91084 15.9342 8.17647 15.4062 8.36719C13.3911 3.71107 10.1593 2.60431 5.71094 5.04688C4.91659 5.8412 4.34106 6.77089 3.98438 7.83594C3.85156 15.8042 3.80731 23.7729 3.85156 31.7422C3.23178 31.7422 2.61198 31.7422 1.99219 31.7422C1.94792 23.95 1.99219 16.1583 2.125 8.36719C2.83701 4.86641 4.91773 2.74141 8.36719 1.99219ZM18.9922 9.16406C20.9017 9.01181 22.3184 9.7644 23.2422 11.4219C20.3177 13.0138 17.3073 14.3419 14.2109 15.4062C13.6342 14.0699 13.8113 12.786 14.7422 11.5547C16.0979 10.6122 17.5146 9.8153 18.9922 9.16406ZM25.1016 13.1484C26.0472 12.9868 26.5784 13.3852 26.6953 14.3438C26.6265 14.6788 26.4494 14.9444 26.1641 15.1406C22.5118 16.6827 18.8816 18.2765 15.2734 19.9219C14.3133 20.1747 13.6934 19.8206 13.4141 18.8594C17.2851 16.8794 21.181 14.9758 25.1016 13.1484Z" fill="#000F2B"/>
<path opacity="0.774" fill-rule="evenodd" clip-rule="evenodd" d="M26.9608 19.258C28.3023 19.1831 29.0991 19.803 29.3515 21.1174C29.0896 22.0861 28.4699 22.396 27.4921 22.0471C26.3368 21.2744 26.1597 20.3447 26.9608 19.258Z" fill="#000F2B"/>
<path opacity="0.782" fill-rule="evenodd" clip-rule="evenodd" d="M22.1799 21.3828C23.5874 21.5346 24.2515 22.3314 24.1721 23.7734C23.1509 24.8824 22.354 24.7053 21.7815 23.2422C21.5602 22.5327 21.693 21.9129 22.1799 21.3828Z" fill="#000F2B"/>
<path opacity="0.767" fill-rule="evenodd" clip-rule="evenodd" d="M33.8672 24.3047C33.8672 24.8359 33.8672 25.3672 33.8672 25.8984C32.3444 26.5498 31.3703 26.0628 30.9453 24.4375C31.0943 23.7131 31.5369 23.3147 32.2734 23.2422C32.8751 23.4896 33.4063 23.8438 33.8672 24.3047Z" fill="#000F2B"/>
<path opacity="0.827" fill-rule="evenodd" clip-rule="evenodd" d="M17.3983 23.5077C17.9886 23.4222 18.4755 23.5992 18.8592 24.039C19.0673 24.905 19.023 25.7461 18.7264 26.5624C18.0557 26.8004 17.4801 26.6676 16.9998 26.164C16.744 25.1948 16.8768 24.3094 17.3983 23.5077Z" fill="#000F2B"/>
<path opacity="0.766" fill-rule="evenodd" clip-rule="evenodd" d="M26.9609 25.3672C28.1549 25.4089 28.8631 26.0287 29.0859 27.2266C28.067 28.9749 27.1373 28.8865 26.2969 26.9609C26.153 26.275 26.3744 25.7437 26.9609 25.3672Z" fill="#000F2B"/>
<path opacity="0.766" fill-rule="evenodd" clip-rule="evenodd" d="M21.914 27.4922C23.2499 27.455 23.9582 28.1191 24.039 29.4844C23.6106 30.7748 22.8581 30.9961 21.7812 30.1485C21.243 29.2153 21.2872 28.33 21.914 27.4922Z" fill="#000F2B"/>
<path opacity="0.767" fill-rule="evenodd" clip-rule="evenodd" d="M17.1326 29.6172C18.8239 29.716 19.3994 30.6016 18.8592 32.2734C18.1508 32.9819 17.4425 32.9819 16.7342 32.2734C16.4784 31.3042 16.6112 30.4188 17.1326 29.6172Z" fill="#000F2B"/>
</g>
<defs>
<clipPath id="clip0_94_141">
<rect width="34" height="34" fill="white"/>
</clipPath>
</defs>
</svg>
