<svg width="34" height="34" viewBox="0 0 34 34" fill="none" xmlns="http://www.w3.org/2000/svg">
<g clip-path="url(#clip0_94_180)">
<path opacity="0.907" fill-rule="evenodd" clip-rule="evenodd" d="M33.8672 4.91406C33.8672 11.5547 33.8672 18.1953 33.8672 24.8359C33.6576 24.9111 33.4804 25.0439 33.3359 25.2344C29.0867 25.3672 24.8369 25.4114 20.5859 25.3672C20.5859 25.8984 20.5859 26.4297 20.5859 26.9609C21.6521 26.9168 22.7146 26.9612 23.7734 27.0937C24.4359 27.6898 24.4359 28.3095 23.7734 28.9531C19.1693 29.1303 14.5651 29.1303 9.96094 28.9531C9.29852 28.3095 9.29852 27.6898 9.96094 27.0937C11.0198 26.9612 12.0823 26.9168 13.1484 26.9609C13.1484 26.4297 13.1484 25.8984 13.1484 25.3672C8.89751 25.4114 4.64751 25.3672 0.398438 25.2344C0.253883 25.0439 0.0768001 24.9111 -0.132812 24.8359C-0.132812 18.1953 -0.132812 11.5547 -0.132812 4.91406C11.2005 4.5599 22.5338 4.5599 33.8672 4.91406ZM1.99219 6.77343C11.9088 6.77343 21.8255 6.77343 31.7422 6.77343C31.7422 12.1745 31.7422 17.5755 31.7422 22.9766C21.8255 22.9766 11.9088 22.9766 1.99219 22.9766C1.99219 17.5755 1.99219 12.1745 1.99219 6.77343ZM15.5391 25.3672C16.4245 25.3672 17.3099 25.3672 18.1953 25.3672C18.1953 25.8984 18.1953 26.4297 18.1953 26.9609C17.3099 26.9609 16.4245 26.9609 15.5391 26.9609C15.5391 26.4297 15.5391 25.8984 15.5391 25.3672Z" fill="#000F2B"/>
</g>
<defs>
<clipPath id="clip0_94_180">
<rect width="34" height="34" fill="white"/>
</clipPath>
</defs>
</svg>
