<svg width="34" height="34" viewBox="0 0 34 34" fill="none" xmlns="http://www.w3.org/2000/svg">
<g clip-path="url(#clip0_94_121)">
<path opacity="0.899" fill-rule="evenodd" clip-rule="evenodd" d="M14.4767 -0.132812C15.6277 -0.132812 16.7788 -0.132812 17.9298 -0.132812C19.6244 0.545413 20.7312 1.78499 21.2502 3.58594C21.3387 9.69531 21.4272 15.8047 21.5158 21.9141C24.3074 25.7574 23.9975 29.3433 20.5861 32.6719C19.7648 33.0825 18.9679 33.481 18.1955 33.8672C16.8673 33.8672 15.5392 33.8672 14.2111 33.8672C10.1247 32.0694 8.57525 28.9707 9.56265 24.5703C9.96029 23.5968 10.4915 22.7114 11.1564 21.9141C11.2449 15.7162 11.3335 9.51822 11.422 3.32031C12.0258 1.78775 13.044 0.636708 14.4767 -0.132812ZM15.5392 1.99219C17.4597 1.92265 18.655 2.80805 19.1252 4.64844C19.2137 10.8463 19.3022 17.0443 19.3908 23.2422C21.4536 25.4005 21.6307 27.7026 19.922 30.1484C17.9248 31.9751 15.7556 32.1964 13.4142 30.8125C10.9831 28.2466 10.9388 25.6346 13.2814 22.9766C13.3699 16.6901 13.4585 10.4037 13.547 4.11719C13.9065 3.0945 14.5705 2.38616 15.5392 1.99219ZM15.8048 26.1641C17.3124 26.2596 17.4895 26.7909 16.3361 27.7578C15.5475 27.4218 15.3704 26.8905 15.8048 26.1641Z" fill="#000F2B"/>
<path opacity="0.862" fill-rule="evenodd" clip-rule="evenodd" d="M4.91415 6.5077C6.24522 6.46363 7.57335 6.50789 8.89853 6.64051C9.60687 7.2603 9.60687 7.88011 8.89853 8.49989C7.5704 8.67698 6.24228 8.67698 4.91415 8.49989C4.24541 7.84146 4.24541 7.17739 4.91415 6.5077Z" fill="#000F2B"/>
<path opacity="0.903" fill-rule="evenodd" clip-rule="evenodd" d="M15.8046 6.77334C16.3949 6.6878 16.8819 6.86487 17.2655 7.30459C17.3098 12.8848 17.4427 18.4629 17.6639 24.039C19.8772 25.6698 20.0543 27.4849 18.1952 29.4843C14.457 30.5261 12.9075 29.1536 13.5468 25.3671C13.8212 24.6943 14.3082 24.2516 15.0077 24.039C15.229 18.4629 15.3618 12.8848 15.4061 7.30459C15.5966 7.16003 15.7295 6.98294 15.8046 6.77334ZM15.8046 26.164C15.3702 26.8904 15.5473 27.4217 16.3358 27.7577C17.4892 26.7908 17.3121 26.2595 15.8046 26.164Z" fill="#000F2B"/>
<path opacity="0.862" fill-rule="evenodd" clip-rule="evenodd" d="M4.91415 10.4921C6.24522 10.448 7.57335 10.4923 8.89853 10.6249C9.60687 11.2447 9.60687 11.8645 8.89853 12.4843C7.5704 12.6614 6.24228 12.6614 4.91415 12.4843C4.24541 11.8258 4.24541 11.1618 4.91415 10.4921Z" fill="#000F2B"/>
<path opacity="0.848" fill-rule="evenodd" clip-rule="evenodd" d="M25.3671 10.4922C25.8184 10.4496 26.2611 10.4939 26.6952 10.625C27.7715 11.382 28.6568 12.3117 29.3515 13.4141C29.0011 14.4498 28.337 14.7155 27.3593 14.211C27.2708 16.0703 27.1821 17.9297 27.0936 19.7891C26.5152 20.7362 25.8069 20.8247 24.9686 20.0547C24.8801 18.1068 24.7915 16.1589 24.703 14.211C23.0811 14.7142 22.5498 14.1829 23.1093 12.6172C23.9069 11.9353 24.6595 11.227 25.3671 10.4922Z" fill="#000F2B"/>
<path opacity="0.857" fill-rule="evenodd" clip-rule="evenodd" d="M4.91415 14.4765C6.24522 14.4324 7.57335 14.4766 8.89853 14.6093C9.60687 15.229 9.60687 15.8489 8.89853 16.4686C7.5704 16.6457 6.24228 16.6457 4.91415 16.4686C4.24541 15.8102 4.24541 15.1461 4.91415 14.4765Z" fill="#000F2B"/>
<path opacity="0.857" fill-rule="evenodd" clip-rule="evenodd" d="M4.91415 18.4608C6.24522 18.4168 7.57335 18.461 8.89853 18.5936C9.60687 19.2134 9.60687 19.8332 8.89853 20.453C7.5704 20.6301 6.24228 20.6301 4.91415 20.453C4.24541 19.7946 4.24541 19.1305 4.91415 18.4608Z" fill="#000F2B"/>
</g>
<defs>
<clipPath id="clip0_94_121">
<rect width="34" height="34" fill="white"/>
</clipPath>
</defs>
</svg>
