<svg width="34" height="34" viewBox="0 0 34 34" fill="none" xmlns="http://www.w3.org/2000/svg">
<g clip-path="url(#clip0_94_183)">
<path opacity="0.91" fill-rule="evenodd" clip-rule="evenodd" d="M4.91406 -0.132812C12.8828 -0.132812 20.8516 -0.132812 28.8203 -0.132812C31.2994 0.752603 32.9819 2.4349 33.8672 4.91406C33.8672 12.8828 33.8672 20.8516 33.8672 28.8203C32.9819 31.2994 31.2994 32.9819 28.8203 33.8672C20.8516 33.8672 12.8828 33.8672 4.91406 33.8672C2.4349 32.9819 0.752603 31.2994 -0.132812 28.8203C-0.132812 20.8516 -0.132812 12.8828 -0.132812 4.91406C0.752603 2.4349 2.4349 0.752603 4.91406 -0.132812ZM6.77344 1.19531C13.5032 1.15105 20.2324 1.19532 26.9609 1.32812C30.1928 1.72656 32.0078 3.54166 32.4062 6.77344C32.5834 13.5026 32.5834 20.2318 32.4062 26.9609C32.0078 30.1928 30.1928 32.0078 26.9609 32.4062C20.2318 32.5834 13.5026 32.5834 6.77344 32.4062C3.54166 32.0078 1.72656 30.1928 1.32812 26.9609C1.15104 20.2318 1.15104 13.5026 1.32812 6.77344C1.77403 3.53879 3.58913 1.67941 6.77344 1.19531Z" fill="#000F2B"/>
<path opacity="0.881" fill-rule="evenodd" clip-rule="evenodd" d="M4.11719 10.4924C4.73538 10.4252 5.26663 10.6023 5.71094 11.0236C6.57823 13.3155 7.41936 15.6176 8.23438 17.9299C8.97223 15.5387 9.81338 13.1923 10.7578 10.8908C11.4557 10.3551 12.1197 10.3994 12.75 11.0236C13.5993 13.3058 14.3962 15.6079 15.1406 17.9299C15.9556 15.6176 16.7968 13.3155 17.6641 11.0236C18.7292 10.2055 19.5261 10.4269 20.0547 11.6877C18.8618 15.2663 17.6665 18.8523 16.4688 22.4455C15.7438 23.339 14.947 23.4276 14.0781 22.7111C13.2288 20.429 12.432 18.1269 11.6875 15.8049C10.8725 18.1171 10.0314 20.4192 9.16406 22.7111C8.59135 23.3588 7.97157 23.4031 7.30469 22.8439C5.82367 19.1989 4.49554 15.4802 3.32031 11.6877C3.53669 11.2512 3.80232 10.8527 4.11719 10.4924Z" fill="#000F2B"/>
<path opacity="0.867" fill-rule="evenodd" clip-rule="evenodd" d="M24.8358 10.492C26.6803 10.4438 28.3628 10.9308 29.8827 11.953C30.691 13.1148 30.4254 13.8674 29.0858 14.2108C28.2815 14.1185 27.5733 13.8086 26.9608 13.2811C23.1571 12.8347 21.519 14.4727 22.0468 18.1952C22.9803 20.1616 24.5298 20.9143 26.6952 20.453C27.4304 19.9973 28.2273 19.6874 29.0858 19.5233C30.3287 19.7966 30.6384 20.5049 30.0155 21.6483C26.3684 24.0361 23.0924 23.5934 20.1874 20.3202C18.1699 15.3247 19.7193 12.0487 24.8358 10.492Z" fill="#000F2B"/>
</g>
<defs>
<clipPath id="clip0_94_183">
<rect width="34" height="34" fill="white"/>
</clipPath>
</defs>
</svg>
