<svg width="34" height="34" viewBox="0 0 34 34" fill="none" xmlns="http://www.w3.org/2000/svg">
<g clip-path="url(#clip0_94_96)">
<path opacity="0.891" fill-rule="evenodd" clip-rule="evenodd" d="M33.8672 10.2265C33.8672 10.7578 33.8672 11.289 33.8672 11.8203C33.4759 12.1497 33.0331 12.4153 32.5391 12.6171C30.6287 11.1051 28.6809 9.64415 26.6953 8.23432C20.1432 4.86973 13.5912 4.86973 7.03906 8.23432C5.38717 9.28354 3.88195 10.5231 2.52344 11.9531C2.08073 12.1744 1.63802 12.3958 1.19531 12.6171C0.701154 12.4153 0.258445 12.1497 -0.132812 11.8203C-0.132812 11.289 -0.132812 10.7578 -0.132812 10.2265C7.50733 2.69556 16.3615 0.880455 26.4297 4.78119C29.2493 6.14103 31.7284 7.95613 33.8672 10.2265Z" fill="#000F2B"/>
<path opacity="0.884" fill-rule="evenodd" clip-rule="evenodd" d="M14.7422 10.4922C20.3531 10.0023 25.0901 11.7732 28.9531 15.8047C29.3516 17.5313 28.6875 18.1953 26.9609 17.7969C21.6346 12.8249 15.7908 12.1166 9.42968 15.6719C8.64269 16.1927 7.93437 16.8125 7.30468 17.5313C5.35056 18.4769 4.5094 17.9014 4.78124 15.8047C7.50392 12.8723 10.8242 11.1014 14.7422 10.4922Z" fill="#000F2B"/>
<path opacity="0.88" fill-rule="evenodd" clip-rule="evenodd" d="M15.8047 18.1955C18.9284 18.0545 21.5404 19.117 23.6406 21.383C24.0339 23.0716 23.3698 23.7357 21.6484 23.3752C18.3814 20.3917 15.1053 20.3917 11.8203 23.3752C10.6448 23.7078 9.93645 23.2652 9.69531 22.0471C10.4063 20.713 11.4688 19.739 12.8828 19.1252C13.88 18.7775 14.8539 18.4676 15.8047 18.1955Z" fill="#000F2B"/>
<path opacity="0.869" fill-rule="evenodd" clip-rule="evenodd" d="M15.8046 26.4297C18.3695 26.2058 19.3877 27.3567 18.8592 29.8828C17.6412 31.1645 16.3573 31.2529 15.0077 30.1484C14.1916 28.6493 14.4572 27.4096 15.8046 26.4297Z" fill="#000F2B"/>
</g>
<defs>
<clipPath id="clip0_94_96">
<rect width="34" height="34" fill="white"/>
</clipPath>
</defs>
</svg>
